<?xml version="1.0" encoding="UTF-8"?> <svg xmlns="http://www.w3.org/2000/svg" xmlns:xlink="http://www.w3.org/1999/xlink" width="601.724" height="195.552" version="1.2" viewBox="0 0 451.293 146.664"><defs><clipPath id="a"><path d="M199.023 867.398H282V965h-82.977zm0 0"></path></clipPath></defs><use width="100%" height="100%" x="443.37" y="586.05" fill="#5100ff" fill-opacity="1" transform="translate(-199.023 -844.363)" xlink:href="#i"></use><use width="100%" height="100%" x="935.928" y="662.05" fill="#000" fill-opacity="1" transform="translate(-199.023 -844.363)" xlink:href="#j"></use><path fill="#000" fill-opacity="1" fill-rule="nonzero" d="M172.477 98.191v-26.18l-8.332 18.41h-7.282l-8.328-18.41v26.18h-13.648V48.492h14.91l10.707 23.38 10.781-23.38h14.84v49.7zm22.156-49.699h13.648v49.7h-13.648zm35.863 25.27v24.43h-13.648v-49.7h10.64l19.95 25.27v-25.27h13.648v49.7h-10.848zm39.125 24.429V48.492h19.11c4.109 0 7.722.653 10.851 1.961 3.125 1.305 5.738 3.078 7.84 5.32 2.101 2.239 3.687 4.875 4.762 7.91 1.07 2.985 1.609 6.184 1.609 9.59 0 3.778-.61 7.207-1.82 10.29-1.168 3.03-2.848 5.648-5.04 7.84-2.195 2.148-4.831 3.827-7.91 5.038-3.082 1.168-6.511 1.75-10.293 1.75zm30.313-24.918c0-1.914-.258-3.664-.774-5.25-.512-1.59-1.258-2.941-2.238-4.062-.934-1.117-2.102-1.98-3.5-2.59-1.399-.652-2.965-.98-4.692-.98h-5.457v25.902h5.457c1.774 0 3.364-.328 4.762-.98a9.615 9.615 0 003.5-2.731c.98-1.168 1.703-2.543 2.168-4.129.516-1.586.774-3.312.774-5.18m55.214 13.02v11.898H319.73V48.492h34.79v11.899h-21.141v7h18.058v11.062H333.38v7.84zm6.348 11.898V48.492h22.82c2.426 0 4.668.512 6.72 1.54 2.054.98 3.804 2.288 5.25 3.921 1.495 1.586 2.66 3.43 3.5 5.527.843 2.055 1.26 4.133 1.26 6.23 0 2.895-.628 5.602-1.89 8.122a16.518 16.518 0 01-5.25 6.09l10.5 18.27h-15.398l-8.75-15.258h-5.11V98.19zm13.652-27.16h8.61c.84 0 1.61-.465 2.308-1.398.746-.934 1.121-2.242 1.121-3.922 0-1.727-.421-3.031-1.261-3.918-.84-.934-1.68-1.402-2.52-1.402h-8.258zm0 0"></path><path fill="#000" fill-opacity="1" fill-rule="nonzero" d="M421.613 48.492h12.461l17.219 49.7h-13.86l-3.011-9.731h-13.23l-2.938 9.73h-13.93zm10.64 30.871l-4.41-15.402-4.62 15.402zm0 0"></path><path fill="#fff" fill-opacity="1" fill-rule="nonzero" d="M67.969 61.766c0 13.347-11.274 24.472-25.532 24.472-14.257 0-25.53-10.804-25.53-24.472 0-13.348 11.273-24.47 25.53-24.47 14.258 0 25.532 11.122 25.532 24.47"></path><g clip-path="url(#a)" clip-rule="nonzero" transform="translate(-199.023 -844.363)"><path fill="#fdcf02" fill-opacity="1" fill-rule="nonzero" d="M240.137 917.887c-11.274 0-20.223-6.356-20.223-13.98 0-7.63 8.95-13.985 20.223-13.985s20.226 6.355 20.226 13.984c0 7.625-8.953 13.98-20.226 13.98m0-50.21c-22.547 0-41.114 17.16-41.114 38.136 0 20.973 18.567 58.793 41.114 58.793 22.879 0 41.113-37.82 41.113-58.793.332-20.976-18.234-38.136-41.113-38.136"></path></g><path fill="#000" fill-opacity="1" fill-rule="nonzero" d="M48.41 59.223c0 3.816-2.984 6.675-6.965 6.675-3.976 0-6.96-2.859-6.96-6.675 0-3.813 2.984-6.672 6.96-6.672 3.98 0 6.965 3.176 6.965 6.672"></path></svg> 